# xmcd CD database file
#
# Track frame offsets:
#	180
#	16842
#	34474
#	54756
#
# Disc length: 971 seconds
#
# Revision: 0
# Processed by: cddbd v1.5.1PL0 Copyright (c) Steve Scherf et al.
# Submitted via: CDex 1.50
#
DISCID=2603c904
DTITLE=BlueKids - Say
DYEAR=1993
DGENRE=New Age
TTITLE0=we'll make it
TTITLE1=say
TTITLE2=I stand up
TTITLE3=I don't wanna live without your love
EXTD=YEAR: 1993
EXTT0=
EXTT1=
EXTT2=
EXTT3=
PLAYORDER=
